<?xml version="1.0" encoding="UTF-8" standalone="no"?>
<!DOCTYPE svg PUBLIC "-//W3C//DTD SVG 1.1//EN"
 "http://www.w3.org/Graphics/SVG/1.1/DTD/svg11.dtd">
<!-- Generated by graphviz version 2.36.0 (20140111.2315)
 -->
<!-- Title: AlignmentMap Pages: 1 -->
<svg width="492pt" height="314pt"
 viewBox="0.00 0.00 492.00 314.00" xmlns="http://www.w3.org/2000/svg" xmlns:xlink="http://www.w3.org/1999/xlink">
<g id="graph0" class="graph" transform="scale(1 1) rotate(0) translate(4 310)">
<title>AlignmentMap</title>
<polygon fill="white" stroke="none" points="-4,4 -4,-310 488,-310 488,4 -4,4"/>
<g id="clust1" class="cluster"><title>cluster_business_outcome</title>
<polygon fill="pink" stroke="pink" points="0,-35 0,-217 126,-217 126,-35 0,-35"/>
<text text-anchor="middle" x="63" y="-201.8" font-family="Times,serif" font-size="14.00">Business Outcomes</text>
</g>
<g id="clust2" class="cluster"><title>cluster_IT_outcome</title>
<polygon fill="#eed5d2" stroke="#eed5d2" points="146,-8 146,-244 250,-244 250,-8 146,-8"/>
<text text-anchor="middle" x="198" y="-228.8" font-family="Times,serif" font-size="14.00">IT Outcomes</text>
</g>
<g id="clust3" class="cluster"><title>cluster_IT_initiatives</title>
<polygon fill="papayawhip" stroke="papayawhip" points="270,-8 270,-298 374,-298 374,-8 270,-8"/>
<text text-anchor="middle" x="322" y="-282.8" font-family="Times,serif" font-size="14.00">IT Initiatives</text>
</g>
<g id="clust4" class="cluster"><title>cluster_action_items</title>
<polygon fill="#c1ffc1" stroke="#c1ffc1" points="394,-8 394,-298 482,-298 482,-8 394,-8"/>
<text text-anchor="middle" x="438" y="-282.8" font-family="Times,serif" font-size="14.00">Action Items</text>
</g>
<!-- business_outcome_Customer_Acquisition -->
<g id="node1" class="node"><title>business_outcome_Customer_Acquisition</title>
<path fill="red" stroke="black" d="M91.8317,-187C91.8317,-187 34.1683,-187 34.1683,-187 28.1683,-187 22.1683,-181 22.1683,-175 22.1683,-175 22.1683,-163 22.1683,-163 22.1683,-157 28.1683,-151 34.1683,-151 34.1683,-151 91.8317,-151 91.8317,-151 97.8317,-151 103.832,-157 103.832,-163 103.832,-163 103.832,-175 103.832,-175 103.832,-181 97.8317,-187 91.8317,-187"/>
<text text-anchor="middle" x="63" y="-171.8" font-family="Times,serif" font-size="14.00">Customer</text>
<text text-anchor="middle" x="63" y="-157.8" font-family="Times,serif" font-size="14.00">Acquisition</text>
</g>
<!-- IT_outcome_Platform_Unbundling -->
<g id="node4" class="node"><title>IT_outcome_Platform_Unbundling</title>
<path fill="red" stroke="black" d="M227.39,-214C227.39,-214 168.61,-214 168.61,-214 162.61,-214 156.61,-208 156.61,-202 156.61,-202 156.61,-190 156.61,-190 156.61,-184 162.61,-178 168.61,-178 168.61,-178 227.39,-178 227.39,-178 233.39,-178 239.39,-184 239.39,-190 239.39,-190 239.39,-202 239.39,-202 239.39,-208 233.39,-214 227.39,-214"/>
<text text-anchor="middle" x="198" y="-198.8" font-family="Times,serif" font-size="14.00">Platform</text>
<text text-anchor="middle" x="198" y="-184.8" font-family="Times,serif" font-size="14.00">Unbundling</text>
</g>
<!-- business_outcome_Customer_Acquisition&#45;&gt;IT_outcome_Platform_Unbundling -->
<g id="edge1" class="edge"><title>business_outcome_Customer_Acquisition&#45;&gt;IT_outcome_Platform_Unbundling</title>
<path fill="none" stroke="black" d="M103.904,-177.101C117.204,-179.801 132.202,-182.846 146.214,-185.69"/>
<polygon fill="black" stroke="black" points="145.707,-189.158 156.203,-187.718 147.099,-182.298 145.707,-189.158"/>
</g>
<!-- IT_outcome_Site_Ux -->
<g id="node5" class="node"><title>IT_outcome_Site_Ux</title>
<path fill="#76ee00" stroke="black" d="M215.391,-160C215.391,-160 180.609,-160 180.609,-160 174.609,-160 168.609,-154 168.609,-148 168.609,-148 168.609,-136 168.609,-136 168.609,-130 174.609,-124 180.609,-124 180.609,-124 215.391,-124 215.391,-124 221.391,-124 227.391,-130 227.391,-136 227.391,-136 227.391,-148 227.391,-148 227.391,-154 221.391,-160 215.391,-160"/>
<text text-anchor="middle" x="198" y="-137.8" font-family="Times,serif" font-size="14.00">Site Ux</text>
</g>
<!-- business_outcome_Customer_Acquisition&#45;&gt;IT_outcome_Site_Ux -->
<g id="edge2" class="edge"><title>business_outcome_Customer_Acquisition&#45;&gt;IT_outcome_Site_Ux</title>
<path fill="none" stroke="black" d="M103.904,-160.899C121.14,-157.4 141.228,-153.322 158.324,-149.852"/>
<polygon fill="black" stroke="black" points="159.426,-153.199 168.529,-147.78 158.033,-146.339 159.426,-153.199"/>
</g>
<!-- business_outcome_Customer_Retention -->
<g id="node2" class="node"><title>business_outcome_Customer_Retention</title>
<path fill="#76ee00" stroke="black" d="M86.4428,-133C86.4428,-133 39.5572,-133 39.5572,-133 33.5572,-133 27.5572,-127 27.5572,-121 27.5572,-121 27.5572,-109 27.5572,-109 27.5572,-103 33.5572,-97 39.5572,-97 39.5572,-97 86.4428,-97 86.4428,-97 92.4428,-97 98.4428,-103 98.4428,-109 98.4428,-109 98.4428,-121 98.4428,-121 98.4428,-127 92.4428,-133 86.4428,-133"/>
<text text-anchor="middle" x="63" y="-117.8" font-family="Times,serif" font-size="14.00">Customer</text>
<text text-anchor="middle" x="63" y="-103.8" font-family="Times,serif" font-size="14.00">Retention</text>
</g>
<!-- business_outcome_Customer_Retention&#45;&gt;IT_outcome_Site_Ux -->
<g id="edge3" class="edge"><title>business_outcome_Customer_Retention&#45;&gt;IT_outcome_Site_Ux</title>
<path fill="none" stroke="black" d="M98.2508,-121.953C116.779,-125.715 139.715,-130.371 158.817,-134.249"/>
<polygon fill="black" stroke="black" points="158.201,-137.695 168.697,-136.254 159.594,-130.835 158.201,-137.695"/>
</g>
<!-- IT_outcome_Site_Performance -->
<g id="node6" class="node"><title>IT_outcome_Site_Performance</title>
<path fill="#ff7f24" stroke="black" d="M229.519,-106C229.519,-106 166.481,-106 166.481,-106 160.481,-106 154.481,-100 154.481,-94 154.481,-94 154.481,-82 154.481,-82 154.481,-76 160.481,-70 166.481,-70 166.481,-70 229.519,-70 229.519,-70 235.519,-70 241.519,-76 241.519,-82 241.519,-82 241.519,-94 241.519,-94 241.519,-100 235.519,-106 229.519,-106"/>
<text text-anchor="middle" x="198" y="-90.8" font-family="Times,serif" font-size="14.00">Site</text>
<text text-anchor="middle" x="198" y="-76.8" font-family="Times,serif" font-size="14.00">Performance</text>
</g>
<!-- business_outcome_Customer_Retention&#45;&gt;IT_outcome_Site_Performance -->
<g id="edge4" class="edge"><title>business_outcome_Customer_Retention&#45;&gt;IT_outcome_Site_Performance</title>
<path fill="none" stroke="black" d="M98.2508,-108.047C112.267,-105.201 128.806,-101.844 144.299,-98.6988"/>
<polygon fill="black" stroke="black" points="145.188,-102.09 154.292,-96.6701 143.795,-95.2296 145.188,-102.09"/>
</g>
<!-- business_outcome_Cost_of_Operations -->
<g id="node3" class="node"><title>business_outcome_Cost_of_Operations</title>
<path fill="#ff7f24" stroke="black" d="M89.9289,-79C89.9289,-79 36.0711,-79 36.0711,-79 30.0711,-79 24.0711,-73 24.0711,-67 24.0711,-67 24.0711,-55 24.0711,-55 24.0711,-49 30.0711,-43 36.0711,-43 36.0711,-43 89.9289,-43 89.9289,-43 95.9289,-43 101.929,-49 101.929,-55 101.929,-55 101.929,-67 101.929,-67 101.929,-73 95.9289,-79 89.9289,-79"/>
<text text-anchor="middle" x="63" y="-63.8" font-family="Times,serif" font-size="14.00">Cost of</text>
<text text-anchor="middle" x="63" y="-49.8" font-family="Times,serif" font-size="14.00">Operations</text>
</g>
<!-- business_outcome_Cost_of_Operations&#45;&gt;IT_outcome_Site_Performance -->
<g id="edge5" class="edge"><title>business_outcome_Cost_of_Operations&#45;&gt;IT_outcome_Site_Performance</title>
<path fill="none" stroke="black" d="M101.757,-68.6649C114.982,-71.3496 130.084,-74.4156 144.306,-77.3027"/>
<polygon fill="black" stroke="black" points="143.97,-80.8058 154.466,-79.3654 145.363,-73.9458 143.97,-80.8058"/>
</g>
<!-- IT_outcome_Site_Scalability -->
<g id="node7" class="node"><title>IT_outcome_Site_Scalability</title>
<path fill="#ff7f24" stroke="black" d="M223.876,-52C223.876,-52 172.124,-52 172.124,-52 166.124,-52 160.124,-46 160.124,-40 160.124,-40 160.124,-28 160.124,-28 160.124,-22 166.124,-16 172.124,-16 172.124,-16 223.876,-16 223.876,-16 229.876,-16 235.876,-22 235.876,-28 235.876,-28 235.876,-40 235.876,-40 235.876,-46 229.876,-52 223.876,-52"/>
<text text-anchor="middle" x="198" y="-36.8" font-family="Times,serif" font-size="14.00">Site</text>
<text text-anchor="middle" x="198" y="-22.8" font-family="Times,serif" font-size="14.00">Scalability</text>
</g>
<!-- business_outcome_Cost_of_Operations&#45;&gt;IT_outcome_Site_Scalability -->
<g id="edge6" class="edge"><title>business_outcome_Cost_of_Operations&#45;&gt;IT_outcome_Site_Scalability</title>
<path fill="none" stroke="black" d="M101.757,-53.3351C116.75,-50.2913 134.158,-46.7574 149.958,-43.5498"/>
<polygon fill="black" stroke="black" points="150.964,-46.9171 160.068,-41.4975 149.572,-40.057 150.964,-46.9171"/>
</g>
<!-- IT_initiatives_API -->
<g id="node8" class="node"><title>IT_initiatives_API</title>
<path fill="#76ee00" stroke="black" d="M337,-268C337,-268 307,-268 307,-268 301,-268 295,-262 295,-256 295,-256 295,-244 295,-244 295,-238 301,-232 307,-232 307,-232 337,-232 337,-232 343,-232 349,-238 349,-244 349,-244 349,-256 349,-256 349,-262 343,-268 337,-268"/>
<text text-anchor="middle" x="322" y="-245.8" font-family="Times,serif" font-size="14.00">API</text>
</g>
<!-- IT_outcome_Platform_Unbundling&#45;&gt;IT_initiatives_API -->
<g id="edge7" class="edge"><title>IT_outcome_Platform_Unbundling&#45;&gt;IT_initiatives_API</title>
<path fill="none" stroke="black" d="M239.624,-213.981C254.38,-220.512 270.933,-227.839 285.237,-234.171"/>
<polygon fill="black" stroke="black" points="284.171,-237.526 294.732,-238.373 287.004,-231.125 284.171,-237.526"/>
</g>
<!-- IT_initiatives_Pluginize -->
<g id="node9" class="node"><title>IT_initiatives_Pluginize</title>
<path fill="red" stroke="black" d="M344.383,-214C344.383,-214 299.617,-214 299.617,-214 293.617,-214 287.617,-208 287.617,-202 287.617,-202 287.617,-190 287.617,-190 287.617,-184 293.617,-178 299.617,-178 299.617,-178 344.383,-178 344.383,-178 350.383,-178 356.383,-184 356.383,-190 356.383,-190 356.383,-202 356.383,-202 356.383,-208 350.383,-214 344.383,-214"/>
<text text-anchor="middle" x="322" y="-191.8" font-family="Times,serif" font-size="14.00">Pluginize</text>
</g>
<!-- IT_outcome_Platform_Unbundling&#45;&gt;IT_initiatives_Pluginize -->
<g id="edge8" class="edge"><title>IT_outcome_Platform_Unbundling&#45;&gt;IT_initiatives_Pluginize</title>
<path fill="none" stroke="black" d="M239.624,-196C251.755,-196 265.099,-196 277.411,-196"/>
<polygon fill="black" stroke="black" points="277.461,-199.5 287.461,-196 277.461,-192.5 277.461,-199.5"/>
</g>
<!-- IT_initiatives_Responsive_Rewrite -->
<g id="node10" class="node"><title>IT_initiatives_Responsive_Rewrite</title>
<path fill="#76ee00" stroke="black" d="M350.053,-160C350.053,-160 293.947,-160 293.947,-160 287.947,-160 281.947,-154 281.947,-148 281.947,-148 281.947,-136 281.947,-136 281.947,-130 287.947,-124 293.947,-124 293.947,-124 350.053,-124 350.053,-124 356.053,-124 362.053,-130 362.053,-136 362.053,-136 362.053,-148 362.053,-148 362.053,-154 356.053,-160 350.053,-160"/>
<text text-anchor="middle" x="322" y="-144.8" font-family="Times,serif" font-size="14.00">Responsive</text>
<text text-anchor="middle" x="322" y="-130.8" font-family="Times,serif" font-size="14.00">Rewrite</text>
</g>
<!-- IT_outcome_Site_Ux&#45;&gt;IT_initiatives_Responsive_Rewrite -->
<g id="edge9" class="edge"><title>IT_outcome_Site_Ux&#45;&gt;IT_initiatives_Responsive_Rewrite</title>
<path fill="none" stroke="black" d="M227.296,-142C240.45,-142 256.485,-142 271.546,-142"/>
<polygon fill="black" stroke="black" points="271.769,-145.5 281.769,-142 271.769,-138.5 271.769,-145.5"/>
</g>
<!-- IT_initiatives_Catalog_Performance -->
<g id="node11" class="node"><title>IT_initiatives_Catalog_Performance</title>
<path fill="red" stroke="black" d="M353.519,-106C353.519,-106 290.481,-106 290.481,-106 284.481,-106 278.481,-100 278.481,-94 278.481,-94 278.481,-82 278.481,-82 278.481,-76 284.481,-70 290.481,-70 290.481,-70 353.519,-70 353.519,-70 359.519,-70 365.519,-76 365.519,-82 365.519,-82 365.519,-94 365.519,-94 365.519,-100 359.519,-106 353.519,-106"/>
<text text-anchor="middle" x="322" y="-90.8" font-family="Times,serif" font-size="14.00">Catalog</text>
<text text-anchor="middle" x="322" y="-76.8" font-family="Times,serif" font-size="14.00">Performance</text>
</g>
<!-- IT_outcome_Site_Performance&#45;&gt;IT_initiatives_Catalog_Performance -->
<g id="edge10" class="edge"><title>IT_outcome_Site_Performance&#45;&gt;IT_initiatives_Catalog_Performance</title>
<path fill="none" stroke="black" d="M241.67,-88C250.164,-88 259.182,-88 267.975,-88"/>
<polygon fill="black" stroke="black" points="268.148,-91.5001 278.148,-88 268.148,-84.5001 268.148,-91.5001"/>
</g>
<!-- IT_initiatives_Sharding -->
<g id="node12" class="node"><title>IT_initiatives_Sharding</title>
<path fill="#ff7f24" stroke="black" d="M343.053,-52C343.053,-52 300.947,-52 300.947,-52 294.947,-52 288.947,-46 288.947,-40 288.947,-40 288.947,-28 288.947,-28 288.947,-22 294.947,-16 300.947,-16 300.947,-16 343.053,-16 343.053,-16 349.053,-16 355.053,-22 355.053,-28 355.053,-28 355.053,-40 355.053,-40 355.053,-46 349.053,-52 343.053,-52"/>
<text text-anchor="middle" x="322" y="-29.8" font-family="Times,serif" font-size="14.00">Sharding</text>
</g>
<!-- IT_outcome_Site_Scalability&#45;&gt;IT_initiatives_Sharding -->
<g id="edge11" class="edge"><title>IT_outcome_Site_Scalability&#45;&gt;IT_initiatives_Sharding</title>
<path fill="none" stroke="black" d="M235.935,-34C249.348,-34 264.609,-34 278.467,-34"/>
<polygon fill="black" stroke="black" points="278.736,-37.5001 288.736,-34 278.736,-30.5001 278.736,-37.5001"/>
</g>
<!-- action_items_0 -->
<g id="node13" class="node"><title>action_items_0</title>
<path fill="white" stroke="black" d="M453,-268C453,-268 423,-268 423,-268 417,-268 411,-262 411,-256 411,-256 411,-244 411,-244 411,-238 417,-232 423,-232 423,-232 453,-232 453,-232 459,-232 465,-238 465,-244 465,-244 465,-256 465,-256 465,-262 459,-268 453,-268"/>
<text text-anchor="middle" x="438" y="-245.8" font-family="Times,serif" font-size="14.00">...</text>
</g>
<!-- IT_initiatives_API&#45;&gt;action_items_0 -->
<g id="edge12" class="edge"><title>IT_initiatives_API&#45;&gt;action_items_0</title>
<path fill="none" stroke="black" d="M349.154,-250C364.505,-250 384.128,-250 400.932,-250"/>
<polygon fill="black" stroke="black" points="400.968,-253.5 410.968,-250 400.968,-246.5 400.968,-253.5"/>
</g>
<!-- action_items_1 -->
<g id="node14" class="node"><title>action_items_1</title>
<path fill="white" stroke="black" d="M453,-214C453,-214 423,-214 423,-214 417,-214 411,-208 411,-202 411,-202 411,-190 411,-190 411,-184 417,-178 423,-178 423,-178 453,-178 453,-178 459,-178 465,-184 465,-190 465,-190 465,-202 465,-202 465,-208 459,-214 453,-214"/>
<text text-anchor="middle" x="438" y="-191.8" font-family="Times,serif" font-size="14.00">...</text>
</g>
<!-- IT_initiatives_Pluginize&#45;&gt;action_items_1 -->
<g id="edge13" class="edge"><title>IT_initiatives_Pluginize&#45;&gt;action_items_1</title>
<path fill="none" stroke="black" d="M356.587,-196C370.404,-196 386.443,-196 400.545,-196"/>
<polygon fill="black" stroke="black" points="400.882,-199.5 410.882,-196 400.882,-192.5 400.882,-199.5"/>
</g>
<!-- action_items_App_X -->
<g id="node15" class="node"><title>action_items_App_X</title>
<path fill="#76ee00" stroke="black" d="M453,-160C453,-160 423,-160 423,-160 417,-160 411,-154 411,-148 411,-148 411,-136 411,-136 411,-130 417,-124 423,-124 423,-124 453,-124 453,-124 459,-124 465,-130 465,-136 465,-136 465,-148 465,-148 465,-154 459,-160 453,-160"/>
<text text-anchor="middle" x="438" y="-137.8" font-family="Times,serif" font-size="14.00">App X</text>
</g>
<!-- IT_initiatives_Responsive_Rewrite&#45;&gt;action_items_App_X -->
<g id="edge14" class="edge"><title>IT_initiatives_Responsive_Rewrite&#45;&gt;action_items_App_X</title>
<path fill="none" stroke="black" d="M362.232,-142C374.686,-142 388.397,-142 400.639,-142"/>
<polygon fill="black" stroke="black" points="400.951,-145.5 410.951,-142 400.951,-138.5 400.951,-145.5"/>
</g>
<!-- action_items_Search_In_One -->
<g id="node16" class="node"><title>action_items_Search_In_One</title>
<path fill="red" stroke="black" d="M455.252,-106C455.252,-106 420.748,-106 420.748,-106 414.748,-106 408.748,-100 408.748,-94 408.748,-94 408.748,-82 408.748,-82 408.748,-76 414.748,-70 420.748,-70 420.748,-70 455.252,-70 455.252,-70 461.252,-70 467.252,-76 467.252,-82 467.252,-82 467.252,-94 467.252,-94 467.252,-100 461.252,-106 455.252,-106"/>
<text text-anchor="middle" x="438" y="-90.8" font-family="Times,serif" font-size="14.00">Search&#45;</text>
<text text-anchor="middle" x="438" y="-76.8" font-family="Times,serif" font-size="14.00">In&#45;One</text>
</g>
<!-- IT_initiatives_Catalog_Performance&#45;&gt;action_items_Search_In_One -->
<g id="edge15" class="edge"><title>IT_initiatives_Catalog_Performance&#45;&gt;action_items_Search_In_One</title>
<path fill="none" stroke="black" d="M365.774,-88C376.483,-88 387.907,-88 398.4,-88"/>
<polygon fill="black" stroke="black" points="398.521,-91.5001 408.521,-88 398.521,-84.5001 398.521,-91.5001"/>
</g>
<!-- action_items_4 -->
<g id="node17" class="node"><title>action_items_4</title>
<path fill="white" stroke="black" d="M453,-52C453,-52 423,-52 423,-52 417,-52 411,-46 411,-40 411,-40 411,-28 411,-28 411,-22 417,-16 423,-16 423,-16 453,-16 453,-16 459,-16 465,-22 465,-28 465,-28 465,-40 465,-40 465,-46 459,-52 453,-52"/>
<text text-anchor="middle" x="438" y="-29.8" font-family="Times,serif" font-size="14.00">...</text>
</g>
<!-- IT_initiatives_Sharding&#45;&gt;action_items_4 -->
<g id="edge16" class="edge"><title>IT_initiatives_Sharding&#45;&gt;action_items_4</title>
<path fill="none" stroke="black" d="M355.059,-34C369.261,-34 386.037,-34 400.698,-34"/>
<polygon fill="black" stroke="black" points="400.933,-37.5001 410.933,-34 400.933,-30.5001 400.933,-37.5001"/>
</g>
</g>
</svg>
