<?xml version="1.0" encoding="UTF-8" standalone="no"?>
<!DOCTYPE svg PUBLIC "-//W3C//DTD SVG 1.1//EN"
 "http://www.w3.org/Graphics/SVG/1.1/DTD/svg11.dtd">
<!-- Generated by graphviz version 2.36.0 (20140111.2315)
 -->
<!-- Title: OrganizationalChart Pages: 1 -->
<svg width="631pt" height="314pt"
 viewBox="0.00 0.00 631.00 314.00" xmlns="http://www.w3.org/2000/svg" xmlns:xlink="http://www.w3.org/1999/xlink">
<g id="graph0" class="graph" transform="scale(1 1) rotate(0) translate(4 310)">
<title>OrganizationalChart</title>
<polygon fill="white" stroke="none" points="-4,4 -4,-310 627,-310 627,4 -4,4"/>
<!-- Leader -->
<g id="node1" class="node"><title>Leader</title>
<polygon fill="#0000ff" stroke="#0000ff" points="413.018,-305.477 198.982,-305.477 198.982,-264.523 413.018,-264.523 413.018,-305.477"/>
<text text-anchor="middle" x="306" y="-290.288" font-family="Curier" font-size="14.00" fill="white">Leader</text>
<text text-anchor="middle" x="306" y="-273.8" font-family="Curier" font-size="14.00" fill="white">(General Grubozaboyschikov)</text>
</g>
<!-- n0 -->
<g id="node14" class="node"><title>n0</title>
</g>
<!-- Leader&#45;&gt;n0 -->
<g id="edge1" class="edge"><title>Leader&#45;&gt;n0</title>
<path fill="none" stroke="black" d="M306,-264.505C306,-249.52 306,-231.186 306,-230.055"/>
</g>
<!-- Director_of_Operations -->
<g id="node2" class="node"><title>Director_of_Operations</title>
<polygon fill="#0000ff" stroke="#0000ff" points="287.546,-249.477 120.454,-249.477 120.454,-208.523 287.546,-208.523 287.546,-249.477"/>
<text text-anchor="middle" x="204" y="-234.288" font-family="Curier" font-size="14.00" fill="white">Director of Operations</text>
<text text-anchor="middle" x="204" y="-217.8" font-family="Curier" font-size="14.00" fill="white">(Rosa Klebb)</text>
</g>
<!-- Director_of_Operations&#45;&gt;n0 -->
<g id="edge2" class="edge"><title>Director_of_Operations&#45;&gt;n0</title>
<path fill="none" stroke="black" d="M287.672,-229C293.686,-229 299.7,-229 305.714,-229"/>
</g>
<!-- Chief_Executioner -->
<g id="node3" class="node"><title>Chief_Executioner</title>
<polygon fill="#0000ff" stroke="#0000ff" points="487.496,-249.477 324.504,-249.477 324.504,-208.523 487.496,-208.523 487.496,-249.477"/>
<text text-anchor="middle" x="406" y="-234.288" font-family="Curier" font-size="14.00" fill="white">Chief Executioner</text>
<text text-anchor="middle" x="406" y="-217.8" font-family="Curier" font-size="14.00" fill="white">(Donovan &#39;Red&#39; Grant)</text>
</g>
<!-- Department_I -->
<g id="node4" class="node"><title>Department_I</title>
<polygon fill="#0000ff" stroke="#0000ff" points="104.278,-178 -0.278477,-178 -0.278477,-142 104.278,-142 104.278,-178"/>
<text text-anchor="middle" x="52" y="-157.044" font-family="Curier" font-size="14.00" fill="white">Department I</text>
</g>
<!-- Department_II -->
<g id="node5" class="node"><title>Department_II</title>
<polygon fill="#0000ff" stroke="#0000ff" points="231.303,-178 122.697,-178 122.697,-142 231.303,-142 231.303,-178"/>
<text text-anchor="middle" x="177" y="-157.044" font-family="Curier" font-size="14.00" fill="white">Department II</text>
</g>
<!-- n7 -->
<g id="node21" class="node"><title>n7</title>
</g>
<!-- Department_II&#45;&gt;n7 -->
<g id="edge14" class="edge"><title>Department_II&#45;&gt;n7</title>
<path fill="none" stroke="black" d="M177,-141.687C177,-135.03 177,-128.825 177,-128.076"/>
</g>
<!-- Department_III -->
<g id="node6" class="node"><title>Department_III</title>
<polygon fill="#0000ff" stroke="#0000ff" points="362.328,-178 249.672,-178 249.672,-142 362.328,-142 362.328,-178"/>
<text text-anchor="middle" x="306" y="-157.044" font-family="Curier" font-size="14.00" fill="white">Department III</text>
</g>
<!-- Department_IV -->
<g id="node7" class="node"><title>Department_IV</title>
<polygon fill="#0000ff" stroke="#0000ff" points="495.118,-178 380.882,-178 380.882,-142 495.118,-142 495.118,-178"/>
<text text-anchor="middle" x="438" y="-157.044" font-family="Curier" font-size="14.00" fill="white">Department IV</text>
</g>
<!-- Department_V -->
<g id="node8" class="node"><title>Department_V</title>
<polygon fill="#0000ff" stroke="#0000ff" points="623.093,-178 512.907,-178 512.907,-142 623.093,-142 623.093,-178"/>
<text text-anchor="middle" x="568" y="-157.044" font-family="Curier" font-size="14.00" fill="white">Department V</text>
</g>
<!-- Agents -->
<g id="node9" class="node"><title>Agents</title>
<polygon fill="#0000ff" stroke="#0000ff" points="128.943,-112 67.0575,-112 67.0575,-76 128.943,-76 128.943,-112"/>
<text text-anchor="middle" x="98" y="-91.0441" font-family="Curier" font-size="14.00" fill="white">Agents</text>
</g>
<!-- n9 -->
<g id="node23" class="node"><title>n9</title>
</g>
<!-- Agents&#45;&gt;n9 -->
<g id="edge19" class="edge"><title>Agents&#45;&gt;n9</title>
<path fill="none" stroke="black" d="M98,-75.917C98,-65.0158 98,-52.6546 98,-51.1521"/>
</g>
<!-- Villains -->
<g id="node10" class="node"><title>Villains</title>
<polygon fill="#0000ff" stroke="#0000ff" points="288.099,-112 223.901,-112 223.901,-76 288.099,-76 288.099,-112"/>
<text text-anchor="middle" x="256" y="-91.0441" font-family="Curier" font-size="14.00" fill="white">Villains</text>
</g>
<!-- n10 -->
<g id="node24" class="node"><title>n10</title>
</g>
<!-- Villains&#45;&gt;n10 -->
<g id="edge20" class="edge"><title>Villains&#45;&gt;n10</title>
<path fill="none" stroke="black" d="M256,-75.917C256,-65.0158 256,-52.6546 256,-51.1521"/>
</g>
<!-- Adolph_Gettler -->
<g id="node11" class="node"><title>Adolph_Gettler</title>
<text text-anchor="middle" x="177" y="-47.0441" font-family="Curier" font-size="14.00">&#39;Adolph Gettler&#39;</text>
</g>
<!-- Mr_Big -->
<g id="node12" class="node"><title>Mr_Big</title>
<text text-anchor="middle" x="306" y="-47.0441" font-family="Curier" font-size="14.00">Mr. Big</text>
</g>
<!-- Auric_Goldfinger -->
<g id="node13" class="node"><title>Auric_Goldfinger</title>
<text text-anchor="middle" x="338" y="-9.04414" font-family="Curier" font-size="14.00">Auric Goldfinger</text>
</g>
<!-- n0&#45;&gt;Chief_Executioner -->
<g id="edge3" class="edge"><title>n0&#45;&gt;Chief_Executioner</title>
<path fill="none" stroke="black" d="M306.391,-229C312.357,-229 318.323,-229 324.289,-229"/>
</g>
<!-- n3 -->
<g id="node17" class="node"><title>n3</title>
</g>
<!-- n0&#45;&gt;n3 -->
<g id="edge4" class="edge"><title>n0&#45;&gt;n3</title>
<path fill="none" stroke="black" d="M306,-227.902C306,-225.971 306,-195.965 306,-194.092"/>
</g>
<!-- n1 -->
<g id="node15" class="node"><title>n1</title>
</g>
<!-- n1&#45;&gt;Department_I -->
<g id="edge9" class="edge"><title>n1&#45;&gt;Department_I</title>
<path fill="none" stroke="black" d="M52,-191.911C52,-191.101 52,-184.883 52,-178.234"/>
</g>
<!-- n2 -->
<g id="node16" class="node"><title>n2</title>
</g>
<!-- n1&#45;&gt;n2 -->
<g id="edge5" class="edge"><title>n1&#45;&gt;n2</title>
<path fill="none" stroke="black" d="M52.4883,-193C93.8301,-193 135.172,-193 176.514,-193"/>
</g>
<!-- n2&#45;&gt;Department_II -->
<g id="edge10" class="edge"><title>n2&#45;&gt;Department_II</title>
<path fill="none" stroke="black" d="M177,-191.911C177,-191.101 177,-184.883 177,-178.234"/>
</g>
<!-- n2&#45;&gt;n3 -->
<g id="edge6" class="edge"><title>n2&#45;&gt;n3</title>
<path fill="none" stroke="black" d="M177.252,-193C220.084,-193 262.916,-193 305.749,-193"/>
</g>
<!-- n3&#45;&gt;Department_III -->
<g id="edge11" class="edge"><title>n3&#45;&gt;Department_III</title>
<path fill="none" stroke="black" d="M306,-191.911C306,-191.101 306,-184.883 306,-178.234"/>
</g>
<!-- n4 -->
<g id="node18" class="node"><title>n4</title>
</g>
<!-- n3&#45;&gt;n4 -->
<g id="edge7" class="edge"><title>n3&#45;&gt;n4</title>
<path fill="none" stroke="black" d="M306.258,-193C350.086,-193 393.914,-193 437.743,-193"/>
</g>
<!-- n4&#45;&gt;Department_IV -->
<g id="edge12" class="edge"><title>n4&#45;&gt;Department_IV</title>
<path fill="none" stroke="black" d="M438,-191.911C438,-191.101 438,-184.883 438,-178.234"/>
</g>
<!-- n5 -->
<g id="node19" class="node"><title>n5</title>
</g>
<!-- n4&#45;&gt;n5 -->
<g id="edge8" class="edge"><title>n4&#45;&gt;n5</title>
<path fill="none" stroke="black" d="M438.254,-193C481.418,-193 524.582,-193 567.747,-193"/>
</g>
<!-- n5&#45;&gt;Department_V -->
<g id="edge13" class="edge"><title>n5&#45;&gt;Department_V</title>
<path fill="none" stroke="black" d="M568,-191.911C568,-191.101 568,-184.883 568,-178.234"/>
</g>
<!-- n6 -->
<g id="node20" class="node"><title>n6</title>
</g>
<!-- n6&#45;&gt;Agents -->
<g id="edge17" class="edge"><title>n6&#45;&gt;Agents</title>
<path fill="none" stroke="black" d="M98,-125.911C98,-125.101 98,-118.883 98,-112.234"/>
</g>
<!-- n6&#45;&gt;n7 -->
<g id="edge15" class="edge"><title>n6&#45;&gt;n7</title>
<path fill="none" stroke="black" d="M98.3086,-127C124.437,-127 150.565,-127 176.693,-127"/>
</g>
<!-- n8 -->
<g id="node22" class="node"><title>n8</title>
</g>
<!-- n7&#45;&gt;n8 -->
<g id="edge16" class="edge"><title>n7&#45;&gt;n8</title>
<path fill="none" stroke="black" d="M177.309,-127C203.437,-127 229.565,-127 255.693,-127"/>
</g>
<!-- n8&#45;&gt;Villains -->
<g id="edge18" class="edge"><title>n8&#45;&gt;Villains</title>
<path fill="none" stroke="black" d="M256,-125.911C256,-125.101 256,-118.883 256,-112.234"/>
</g>
<!-- n9&#45;&gt;Adolph_Gettler -->
<g id="edge21" class="edge"><title>n9&#45;&gt;Adolph_Gettler</title>
<path fill="none" stroke="black" d="M98.3086,-50C104.354,-50 110.399,-50 116.445,-50"/>
</g>
<!-- n10&#45;&gt;Mr_Big -->
<g id="edge22" class="edge"><title>n10&#45;&gt;Mr_Big</title>
<path fill="none" stroke="black" d="M256.391,-50C262.463,-50 268.535,-50 274.607,-50"/>
</g>
<!-- n11 -->
<g id="node25" class="node"><title>n11</title>
</g>
<!-- n10&#45;&gt;n11 -->
<g id="edge23" class="edge"><title>n10&#45;&gt;n11</title>
<path fill="none" stroke="black" d="M256,-48.8967C256,-46.8511 256,-15.0806 256,-13.097"/>
</g>
<!-- n11&#45;&gt;Auric_Goldfinger -->
<g id="edge24" class="edge"><title>n11&#45;&gt;Auric_Goldfinger</title>
<path fill="none" stroke="black" d="M256.32,-12C262.382,-12 268.445,-12 274.507,-12"/>
</g>
<!-- n12 -->
<g id="node26" class="node"><title>n12</title>
</g>
</g>
</svg>
